<mxfile host="Electron" modified="2023-11-27T18:37:54.588Z" agent="Mozilla/5.0 (Windows NT 10.0; Win64; x64) AppleWebKit/537.36 (KHTML, like Gecko) draw.io/22.1.2 Chrome/114.0.5735.289 Electron/25.9.4 Safari/537.36" etag="ToektUQjulF09asf1j5r" version="22.1.2" type="device">
  <diagram name="第 1 页" id="MFOLSfZtmPzOwOTMhl4v">
    <mxGraphModel dx="1098" dy="988" grid="1" gridSize="10" guides="1" tooltips="1" connect="1" arrows="1" fold="1" page="1" pageScale="1" pageWidth="827" pageHeight="1169" math="0" shadow="0">
      <root>
        <mxCell id="0" />
        <mxCell id="1" parent="0" />
        <mxCell id="3UC5Rs5W0Kwzz4L8c9O8-13" style="edgeStyle=orthogonalEdgeStyle;rounded=0;orthogonalLoop=1;jettySize=auto;html=1;entryX=1;entryY=1;entryDx=0;entryDy=0;fillColor=#e1d5e7;strokeColor=#9673a6;strokeWidth=3;fontSize=12;fontStyle=1" edge="1" parent="1" source="3UC5Rs5W0Kwzz4L8c9O8-1" target="3UC5Rs5W0Kwzz4L8c9O8-4">
          <mxGeometry relative="1" as="geometry">
            <Array as="points">
              <mxPoint x="120" y="250" />
              <mxPoint x="120" y="250" />
            </Array>
          </mxGeometry>
        </mxCell>
        <mxCell id="3UC5Rs5W0Kwzz4L8c9O8-1" value="HomelandGameAssets" style="rounded=0;whiteSpace=wrap;html=1;fillColor=#d5e8d4;strokeColor=#82b366;fontSize=12;fontStyle=1" vertex="1" parent="1">
          <mxGeometry x="40" y="120" width="160" height="40" as="geometry" />
        </mxCell>
        <mxCell id="3UC5Rs5W0Kwzz4L8c9O8-19" style="edgeStyle=orthogonalEdgeStyle;rounded=0;orthogonalLoop=1;jettySize=auto;html=1;endArrow=none;endFill=0;fontSize=12;fontStyle=1" edge="1" parent="1" source="3UC5Rs5W0Kwzz4L8c9O8-2" target="3UC5Rs5W0Kwzz4L8c9O8-1">
          <mxGeometry relative="1" as="geometry" />
        </mxCell>
        <mxCell id="3UC5Rs5W0Kwzz4L8c9O8-20" style="edgeStyle=orthogonalEdgeStyle;rounded=0;orthogonalLoop=1;jettySize=auto;html=1;entryX=0.5;entryY=0;entryDx=0;entryDy=0;endArrow=none;endFill=0;fontSize=12;fontStyle=1" edge="1" parent="1" source="3UC5Rs5W0Kwzz4L8c9O8-2" target="3UC5Rs5W0Kwzz4L8c9O8-3">
          <mxGeometry relative="1" as="geometry" />
        </mxCell>
        <mxCell id="3UC5Rs5W0Kwzz4L8c9O8-2" value="HomelandGame" style="rounded=0;whiteSpace=wrap;html=1;fillColor=#dae8fc;strokeColor=#6c8ebf;fontSize=12;fontStyle=1" vertex="1" parent="1">
          <mxGeometry x="280" y="40" width="160" height="40" as="geometry" />
        </mxCell>
        <mxCell id="3UC5Rs5W0Kwzz4L8c9O8-29" style="edgeStyle=orthogonalEdgeStyle;rounded=0;orthogonalLoop=1;jettySize=auto;html=1;exitX=0.5;exitY=1;exitDx=0;exitDy=0;fillColor=#e1d5e7;strokeColor=#9673a6;strokeWidth=3;fontSize=12;fontStyle=1" edge="1" parent="1" source="3UC5Rs5W0Kwzz4L8c9O8-3" target="3UC5Rs5W0Kwzz4L8c9O8-22">
          <mxGeometry relative="1" as="geometry" />
        </mxCell>
        <mxCell id="3UC5Rs5W0Kwzz4L8c9O8-39" style="edgeStyle=orthogonalEdgeStyle;rounded=0;orthogonalLoop=1;jettySize=auto;html=1;entryX=0.5;entryY=0;entryDx=0;entryDy=0;exitX=0.5;exitY=1;exitDx=0;exitDy=0;fillColor=#e1d5e7;strokeColor=#9673a6;strokeWidth=3;fontSize=12;fontStyle=1" edge="1" parent="1" source="3UC5Rs5W0Kwzz4L8c9O8-3" target="3UC5Rs5W0Kwzz4L8c9O8-33">
          <mxGeometry relative="1" as="geometry">
            <Array as="points">
              <mxPoint x="680" y="240" />
              <mxPoint x="840" y="240" />
            </Array>
          </mxGeometry>
        </mxCell>
        <mxCell id="3UC5Rs5W0Kwzz4L8c9O8-3" value="Source" style="rounded=0;whiteSpace=wrap;html=1;fillColor=#ffe6cc;strokeColor=#d79b00;fontSize=12;fontStyle=1" vertex="1" parent="1">
          <mxGeometry x="600" y="120" width="160" height="40" as="geometry" />
        </mxCell>
        <mxCell id="3UC5Rs5W0Kwzz4L8c9O8-4" value="&lt;font style=&quot;font-size: 14px;&quot; color=&quot;#cc00cc&quot;&gt;Artists&lt;/font&gt;" style="text;html=1;strokeColor=none;fillColor=none;align=center;verticalAlign=middle;whiteSpace=wrap;rounded=0;fontSize=12;fontStyle=1" vertex="1" parent="1">
          <mxGeometry x="40" y="280" width="80" height="40" as="geometry" />
        </mxCell>
        <mxCell id="3UC5Rs5W0Kwzz4L8c9O8-17" style="edgeStyle=orthogonalEdgeStyle;rounded=0;orthogonalLoop=1;jettySize=auto;html=1;entryX=1;entryY=0.5;entryDx=0;entryDy=0;fillColor=#b1ddf0;strokeColor=#10739e;strokeWidth=3;fontSize=12;fontStyle=1" edge="1" parent="1" source="3UC5Rs5W0Kwzz4L8c9O8-5" target="3UC5Rs5W0Kwzz4L8c9O8-1">
          <mxGeometry relative="1" as="geometry">
            <Array as="points">
              <mxPoint x="320" y="400" />
              <mxPoint x="320" y="140" />
            </Array>
          </mxGeometry>
        </mxCell>
        <mxCell id="3UC5Rs5W0Kwzz4L8c9O8-5" value="" style="rounded=0;whiteSpace=wrap;html=1;fontSize=12;fontStyle=1" vertex="1" parent="1">
          <mxGeometry x="40" y="320" width="160" height="160" as="geometry" />
        </mxCell>
        <mxCell id="3UC5Rs5W0Kwzz4L8c9O8-6" value="" style="endArrow=none;html=1;rounded=0;exitX=0;exitY=0.25;exitDx=0;exitDy=0;entryX=1;entryY=0.25;entryDx=0;entryDy=0;fontSize=12;fontStyle=1" edge="1" parent="1" source="3UC5Rs5W0Kwzz4L8c9O8-5" target="3UC5Rs5W0Kwzz4L8c9O8-5">
          <mxGeometry width="50" height="50" relative="1" as="geometry">
            <mxPoint x="40" y="350" as="sourcePoint" />
            <mxPoint x="90" y="300" as="targetPoint" />
          </mxGeometry>
        </mxCell>
        <mxCell id="3UC5Rs5W0Kwzz4L8c9O8-7" value="" style="endArrow=none;html=1;rounded=0;exitX=0;exitY=0.5;exitDx=0;exitDy=0;entryX=1;entryY=0.5;entryDx=0;entryDy=0;fontSize=12;fontStyle=1" edge="1" parent="1" source="3UC5Rs5W0Kwzz4L8c9O8-5" target="3UC5Rs5W0Kwzz4L8c9O8-5">
          <mxGeometry width="50" height="50" relative="1" as="geometry">
            <mxPoint x="50" y="358" as="sourcePoint" />
            <mxPoint x="170" y="358" as="targetPoint" />
          </mxGeometry>
        </mxCell>
        <mxCell id="3UC5Rs5W0Kwzz4L8c9O8-8" value="" style="endArrow=none;html=1;rounded=0;exitX=0;exitY=0.75;exitDx=0;exitDy=0;entryX=1;entryY=0.75;entryDx=0;entryDy=0;fontSize=12;fontStyle=1" edge="1" parent="1" source="3UC5Rs5W0Kwzz4L8c9O8-5" target="3UC5Rs5W0Kwzz4L8c9O8-5">
          <mxGeometry width="50" height="50" relative="1" as="geometry">
            <mxPoint x="50" y="385" as="sourcePoint" />
            <mxPoint x="170" y="385" as="targetPoint" />
          </mxGeometry>
        </mxCell>
        <mxCell id="3UC5Rs5W0Kwzz4L8c9O8-12" style="edgeStyle=orthogonalEdgeStyle;rounded=0;orthogonalLoop=1;jettySize=auto;html=1;exitX=1;exitY=0.5;exitDx=0;exitDy=0;fillColor=#b0e3e6;strokeColor=#0e8088;strokeWidth=3;fontSize=12;fontStyle=1" edge="1" parent="1" source="3UC5Rs5W0Kwzz4L8c9O8-9" target="3UC5Rs5W0Kwzz4L8c9O8-10">
          <mxGeometry relative="1" as="geometry">
            <mxPoint x="200" y="340" as="sourcePoint" />
            <Array as="points">
              <mxPoint x="240" y="340" />
              <mxPoint x="240" y="380" />
            </Array>
          </mxGeometry>
        </mxCell>
        <mxCell id="3UC5Rs5W0Kwzz4L8c9O8-9" value="Template" style="text;html=1;strokeColor=#d6b656;fillColor=#fff2cc;align=center;verticalAlign=middle;whiteSpace=wrap;rounded=0;fontSize=12;fontStyle=1" vertex="1" parent="1">
          <mxGeometry x="40" y="320" width="160" height="40" as="geometry" />
        </mxCell>
        <mxCell id="3UC5Rs5W0Kwzz4L8c9O8-10" value=".../HomelandGameAssets" style="text;html=1;strokeColor=#b85450;fillColor=#f8cecc;align=center;verticalAlign=middle;whiteSpace=wrap;rounded=0;fontSize=12;fontStyle=1" vertex="1" parent="1">
          <mxGeometry x="40" y="360" width="160" height="40" as="geometry" />
        </mxCell>
        <mxCell id="3UC5Rs5W0Kwzz4L8c9O8-11" value="&lt;font style=&quot;font-size: 14px;&quot; color=&quot;#cc6600&quot;&gt;remote&lt;/font&gt;" style="text;html=1;strokeColor=none;fillColor=none;align=center;verticalAlign=middle;whiteSpace=wrap;rounded=0;fontSize=12;fontStyle=1" vertex="1" parent="1">
          <mxGeometry x="40" y="80" width="80" height="40" as="geometry" />
        </mxCell>
        <mxCell id="3UC5Rs5W0Kwzz4L8c9O8-14" value="&lt;font color=&quot;#4c0099&quot; style=&quot;font-size: 12px;&quot;&gt;git lfs &lt;/font&gt;&lt;font color=&quot;#ff0000&quot; style=&quot;font-size: 14px;&quot;&gt;pull &lt;/font&gt;&lt;font color=&quot;#4c0099&quot; style=&quot;font-size: 12px;&quot;&gt;-X ours&lt;/font&gt;" style="text;html=1;strokeColor=none;fillColor=none;align=center;verticalAlign=middle;whiteSpace=wrap;rounded=0;fontSize=12;fontStyle=1" vertex="1" parent="1">
          <mxGeometry x="120" y="200" width="120" height="40" as="geometry" />
        </mxCell>
        <mxCell id="3UC5Rs5W0Kwzz4L8c9O8-15" value="&lt;font color=&quot;#006633&quot; style=&quot;font-size: 12px;&quot;&gt;copy then modify&lt;/font&gt;" style="text;html=1;strokeColor=none;fillColor=none;align=center;verticalAlign=middle;whiteSpace=wrap;rounded=0;fontSize=12;fontStyle=1" vertex="1" parent="1">
          <mxGeometry x="210" y="300" width="110" height="40" as="geometry" />
        </mxCell>
        <mxCell id="3UC5Rs5W0Kwzz4L8c9O8-18" value="&lt;font color=&quot;#000099&quot;&gt;git add .&lt;br style=&quot;font-size: 12px;&quot;&gt;git commit -m &quot;what you modify&quot;&lt;br&gt;&lt;/font&gt;&lt;font style=&quot;border-color: var(--border-color);&quot; color=&quot;#4c0099&quot;&gt;git lfs&amp;nbsp;&lt;/font&gt;&lt;font style=&quot;border-color: var(--border-color); font-size: 14px;&quot; color=&quot;#ff0000&quot;&gt;pull&amp;nbsp;&lt;/font&gt;&lt;font style=&quot;border-color: var(--border-color);&quot; color=&quot;#4c0099&quot;&gt;-X ours&lt;/font&gt;&lt;br style=&quot;font-size: 12px;&quot;&gt;&lt;font color=&quot;#000099&quot;&gt;git push&lt;/font&gt;" style="text;html=1;strokeColor=none;fillColor=none;align=center;verticalAlign=middle;whiteSpace=wrap;rounded=0;fontSize=12;fontStyle=1" vertex="1" parent="1">
          <mxGeometry x="200" y="400" width="180" height="80" as="geometry" />
        </mxCell>
        <mxCell id="3UC5Rs5W0Kwzz4L8c9O8-21" value="&lt;font style=&quot;font-size: 14px;&quot; color=&quot;#6600cc&quot;&gt;Programmers&lt;/font&gt;" style="text;html=1;strokeColor=none;fillColor=none;align=center;verticalAlign=middle;whiteSpace=wrap;rounded=0;fontSize=12;fontStyle=1" vertex="1" parent="1">
          <mxGeometry x="420" y="280" width="80" height="40" as="geometry" />
        </mxCell>
        <mxCell id="3UC5Rs5W0Kwzz4L8c9O8-22" value="" style="rounded=0;whiteSpace=wrap;html=1;fontSize=12;fontStyle=1" vertex="1" parent="1">
          <mxGeometry x="440" y="320" width="160" height="160" as="geometry" />
        </mxCell>
        <mxCell id="3UC5Rs5W0Kwzz4L8c9O8-23" value="" style="endArrow=none;html=1;rounded=0;exitX=0;exitY=0.25;exitDx=0;exitDy=0;entryX=1;entryY=0.25;entryDx=0;entryDy=0;fontSize=12;fontStyle=1" edge="1" parent="1" source="3UC5Rs5W0Kwzz4L8c9O8-22" target="3UC5Rs5W0Kwzz4L8c9O8-22">
          <mxGeometry width="50" height="50" relative="1" as="geometry">
            <mxPoint x="440" y="350" as="sourcePoint" />
            <mxPoint x="490" y="300" as="targetPoint" />
          </mxGeometry>
        </mxCell>
        <mxCell id="3UC5Rs5W0Kwzz4L8c9O8-24" value="" style="endArrow=none;html=1;rounded=0;exitX=0;exitY=0.5;exitDx=0;exitDy=0;entryX=1;entryY=0.5;entryDx=0;entryDy=0;fontSize=12;fontStyle=1" edge="1" parent="1" source="3UC5Rs5W0Kwzz4L8c9O8-22" target="3UC5Rs5W0Kwzz4L8c9O8-22">
          <mxGeometry width="50" height="50" relative="1" as="geometry">
            <mxPoint x="450" y="358" as="sourcePoint" />
            <mxPoint x="570" y="358" as="targetPoint" />
          </mxGeometry>
        </mxCell>
        <mxCell id="3UC5Rs5W0Kwzz4L8c9O8-25" value="" style="endArrow=none;html=1;rounded=0;exitX=0;exitY=0.75;exitDx=0;exitDy=0;entryX=1;entryY=0.75;entryDx=0;entryDy=0;fontSize=12;fontStyle=1" edge="1" parent="1" source="3UC5Rs5W0Kwzz4L8c9O8-22" target="3UC5Rs5W0Kwzz4L8c9O8-22">
          <mxGeometry width="50" height="50" relative="1" as="geometry">
            <mxPoint x="450" y="385" as="sourcePoint" />
            <mxPoint x="570" y="385" as="targetPoint" />
          </mxGeometry>
        </mxCell>
        <mxCell id="3UC5Rs5W0Kwzz4L8c9O8-41" style="edgeStyle=orthogonalEdgeStyle;rounded=0;orthogonalLoop=1;jettySize=auto;html=1;entryX=0;entryY=0.5;entryDx=0;entryDy=0;fillColor=#b1ddf0;strokeColor=#10739e;strokeWidth=3;fontSize=12;fontStyle=1" edge="1" parent="1" source="3UC5Rs5W0Kwzz4L8c9O8-27" target="3UC5Rs5W0Kwzz4L8c9O8-3">
          <mxGeometry relative="1" as="geometry">
            <Array as="points">
              <mxPoint x="400" y="380" />
              <mxPoint x="400" y="140" />
            </Array>
          </mxGeometry>
        </mxCell>
        <mxCell id="3UC5Rs5W0Kwzz4L8c9O8-27" value="Source/Module1" style="text;html=1;strokeColor=#b85450;fillColor=#f8cecc;align=center;verticalAlign=middle;whiteSpace=wrap;rounded=0;fontSize=12;fontStyle=1" vertex="1" parent="1">
          <mxGeometry x="440" y="360" width="160" height="40" as="geometry" />
        </mxCell>
        <mxCell id="3UC5Rs5W0Kwzz4L8c9O8-28" value="&lt;font color=&quot;#006633&quot;&gt;Modify&lt;/font&gt;" style="text;html=1;strokeColor=none;fillColor=none;align=center;verticalAlign=middle;whiteSpace=wrap;rounded=0;fontSize=12;fontStyle=1" vertex="1" parent="1">
          <mxGeometry x="600" y="360" width="70" height="40" as="geometry" />
        </mxCell>
        <mxCell id="3UC5Rs5W0Kwzz4L8c9O8-32" value="&lt;font style=&quot;font-size: 14px;&quot; color=&quot;#6600cc&quot;&gt;Programmers&lt;/font&gt;" style="text;html=1;strokeColor=none;fillColor=none;align=center;verticalAlign=middle;whiteSpace=wrap;rounded=0;fontSize=12;fontStyle=1" vertex="1" parent="1">
          <mxGeometry x="860" y="280" width="80" height="40" as="geometry" />
        </mxCell>
        <mxCell id="3UC5Rs5W0Kwzz4L8c9O8-33" value="" style="rounded=0;whiteSpace=wrap;html=1;fontSize=12;fontStyle=1" vertex="1" parent="1">
          <mxGeometry x="760" y="320" width="160" height="160" as="geometry" />
        </mxCell>
        <mxCell id="3UC5Rs5W0Kwzz4L8c9O8-34" value="" style="endArrow=none;html=1;rounded=0;exitX=0;exitY=0.25;exitDx=0;exitDy=0;entryX=1;entryY=0.25;entryDx=0;entryDy=0;fontSize=12;fontStyle=1" edge="1" parent="1" source="3UC5Rs5W0Kwzz4L8c9O8-33" target="3UC5Rs5W0Kwzz4L8c9O8-33">
          <mxGeometry width="50" height="50" relative="1" as="geometry">
            <mxPoint x="760" y="350" as="sourcePoint" />
            <mxPoint x="810" y="300" as="targetPoint" />
          </mxGeometry>
        </mxCell>
        <mxCell id="3UC5Rs5W0Kwzz4L8c9O8-35" value="" style="endArrow=none;html=1;rounded=0;exitX=0;exitY=0.5;exitDx=0;exitDy=0;entryX=1;entryY=0.5;entryDx=0;entryDy=0;fontSize=12;fontStyle=1" edge="1" parent="1" source="3UC5Rs5W0Kwzz4L8c9O8-33" target="3UC5Rs5W0Kwzz4L8c9O8-33">
          <mxGeometry width="50" height="50" relative="1" as="geometry">
            <mxPoint x="770" y="358" as="sourcePoint" />
            <mxPoint x="890" y="358" as="targetPoint" />
          </mxGeometry>
        </mxCell>
        <mxCell id="3UC5Rs5W0Kwzz4L8c9O8-36" value="" style="endArrow=none;html=1;rounded=0;exitX=0;exitY=0.75;exitDx=0;exitDy=0;entryX=1;entryY=0.75;entryDx=0;entryDy=0;fontSize=12;fontStyle=1" edge="1" parent="1" source="3UC5Rs5W0Kwzz4L8c9O8-33" target="3UC5Rs5W0Kwzz4L8c9O8-33">
          <mxGeometry width="50" height="50" relative="1" as="geometry">
            <mxPoint x="770" y="385" as="sourcePoint" />
            <mxPoint x="890" y="385" as="targetPoint" />
          </mxGeometry>
        </mxCell>
        <mxCell id="3UC5Rs5W0Kwzz4L8c9O8-42" style="edgeStyle=orthogonalEdgeStyle;rounded=0;orthogonalLoop=1;jettySize=auto;html=1;entryX=1;entryY=0.5;entryDx=0;entryDy=0;fillColor=#b1ddf0;strokeColor=#10739e;strokeWidth=3;fontSize=12;fontStyle=1" edge="1" parent="1" source="3UC5Rs5W0Kwzz4L8c9O8-37" target="3UC5Rs5W0Kwzz4L8c9O8-3">
          <mxGeometry relative="1" as="geometry">
            <Array as="points">
              <mxPoint x="960" y="380" />
              <mxPoint x="960" y="140" />
            </Array>
          </mxGeometry>
        </mxCell>
        <mxCell id="3UC5Rs5W0Kwzz4L8c9O8-37" value="Source/Module2" style="text;html=1;strokeColor=#b85450;fillColor=#f8cecc;align=center;verticalAlign=middle;whiteSpace=wrap;rounded=0;fontSize=12;fontStyle=1" vertex="1" parent="1">
          <mxGeometry x="760" y="360" width="160" height="40" as="geometry" />
        </mxCell>
        <mxCell id="3UC5Rs5W0Kwzz4L8c9O8-38" value="&lt;font color=&quot;#006633&quot;&gt;Modify&lt;/font&gt;" style="text;html=1;strokeColor=none;fillColor=none;align=center;verticalAlign=middle;whiteSpace=wrap;rounded=0;fontSize=12;fontStyle=1" vertex="1" parent="1">
          <mxGeometry x="690" y="360" width="70" height="40" as="geometry" />
        </mxCell>
        <mxCell id="3UC5Rs5W0Kwzz4L8c9O8-40" value="&lt;font color=&quot;#4c0099&quot;&gt;git lfs pull&lt;/font&gt;" style="text;html=1;strokeColor=none;fillColor=none;align=center;verticalAlign=middle;whiteSpace=wrap;rounded=0;fontSize=12;fontStyle=1" vertex="1" parent="1">
          <mxGeometry x="640" y="240" width="80" height="40" as="geometry" />
        </mxCell>
        <mxCell id="3UC5Rs5W0Kwzz4L8c9O8-43" value="&lt;font color=&quot;#000099&quot;&gt;git add .&lt;br style=&quot;font-size: 12px;&quot;&gt;git commit -m &quot;what you modify&quot;&lt;/font&gt;&lt;font style=&quot;border-color: var(--border-color);&quot; color=&quot;#000099&quot;&gt;&lt;br style=&quot;border-color: var(--border-color);&quot;&gt;git&amp;nbsp;&lt;/font&gt;&lt;font style=&quot;border-color: var(--border-color); font-size: 14px;&quot; color=&quot;#ff0000&quot;&gt;pull&lt;/font&gt;&lt;font color=&quot;#000099&quot;&gt;&lt;br style=&quot;font-size: 12px;&quot;&gt;git push&lt;/font&gt;" style="text;html=1;strokeColor=none;fillColor=none;align=center;verticalAlign=middle;whiteSpace=wrap;rounded=0;fontSize=12;fontStyle=1" vertex="1" parent="1">
          <mxGeometry x="400" y="140" width="180" height="100" as="geometry" />
        </mxCell>
        <mxCell id="3UC5Rs5W0Kwzz4L8c9O8-44" value="&lt;font color=&quot;#000099&quot;&gt;git add .&lt;br style=&quot;font-size: 12px;&quot;&gt;git commit -m &quot;what you modify&quot;&lt;/font&gt;&lt;font style=&quot;border-color: var(--border-color);&quot; color=&quot;#000099&quot;&gt;&lt;br style=&quot;border-color: var(--border-color);&quot;&gt;git&amp;nbsp;&lt;/font&gt;&lt;font style=&quot;border-color: var(--border-color); font-size: 14px;&quot; color=&quot;#ff0000&quot;&gt;pull&lt;/font&gt;&lt;font color=&quot;#000099&quot;&gt;&lt;br style=&quot;font-size: 12px;&quot;&gt;git push&lt;/font&gt;" style="text;html=1;strokeColor=none;fillColor=none;align=center;verticalAlign=middle;whiteSpace=wrap;rounded=0;fontSize=12;fontStyle=1" vertex="1" parent="1">
          <mxGeometry x="780" y="140" width="180" height="100" as="geometry" />
        </mxCell>
      </root>
    </mxGraphModel>
  </diagram>
</mxfile>
